<svg width="16" height="10" viewBox="0 0 16 10" fill="none" xmlns="http://www.w3.org/2000/svg">
<path d="M8 0C2.18182 0 0 5 0 5C0 5 2.18182 10 8 10C13.8182 10 16 5 16 5C16 5 13.8182 0 8 0ZM8 1.875C10.008 1.875 11.6364 3.27437 11.6364 5C11.6364 6.72563 10.008 8.125 8 8.125C5.992 8.125 4.36364 6.72563 4.36364 5C4.36364 3.27437 5.992 1.875 8 1.875ZM8 3.125C7.42135 3.125 6.86639 3.32254 6.45722 3.67417C6.04805 4.02581 5.81818 4.50272 5.81818 5C5.81818 5.49728 6.04805 5.97419 6.45722 6.32583C6.86639 6.67746 7.42135 6.875 8 6.875C8.57865 6.875 9.13361 6.67746 9.54278 6.32583C9.95195 5.97419 10.1818 5.49728 10.1818 5C10.1818 4.50272 9.95195 4.02581 9.54278 3.67417C9.13361 3.32254 8.57865 3.125 8 3.125Z" fill="#999999"/>
</svg>
